<svg xmlns="http://www.w3.org/2000/svg" 
     xmlns:xlink="http://www.w3.org/1999/xlink" 
     width="300" height="300" 
     viewBox="0 0 300 300" 
     preserveAspectRatio="xMidYMid meet">
  <g transform="translate(0,300) scale(0.1,-0.1)" fill="#000000" stroke="none">
    <path d="M1110 2700 c-306 -65 -570 -231 -661 -416 -77 -156 -28 -317 122
    -403 27 -15 62 -46 78 -68 39 -54 103 -97 176 -118 112 -33 217 -3 342 98 125
    100 244 151 340 145 l48 -3 14 -61 c16 -71 11 -101 -25 -144 -38 -45 -79 -62
    -277 -119 -215 -62 -292 -98 -374 -175 -82 -76 -129 -168 -143 -281 -17 -135
    1 -216 62 -270 l40 -37 -35 -29 c-73 -60 -99 -184 -58 -274 23 -51 79 -101
    130 -116 26 -8 41 -19 45 -33 9 -36 64 -93 111 -115 33 -16 64 -21 122 -21 94
    0 145 22 201 85 85 97 83 219 -7 306 l-47 45 24 18 c46 35 62 75 62 157 0 66
    4 82 26 115 15 21 34 44 43 51 38 30 126 65 269 108 84 25 159 48 166 51 9 3
    16 -5 21 -23 12 -48 45 -92 90 -119 41 -24 54 -26 177 -27 132 -2 147 -5 206
    -45 18 -12 -7 -73 -39 -96 -35 -24 -75 -20 -201 20 -200 65 -310 48 -407 -62
    -50 -57 -70 -113 -54 -155 11 -27 10 -29 -15 -29 -37 0 -88 -33 -107 -69 -21
    -41 -19 -100 5 -139 11 -18 20 -48 20 -68 0 -51 24 -90 76 -120 121 -71 262
    35 209 159 -6 14 -2 17 20 17 25 0 39 11 102 82 42 47 82 44 288 -17 236 -70
    370 -41 460 99 83 130 96 261 45 450 -44 160 -87 241 -170 319 -69 66 -181
    131 -246 143 -19 3 -34 8 -34 10 0 1 7 29 15 61 20 75 19 235 -1 326 -35 160
    -157 355 -280 448 -32 24 -95 79 -140 121 -130 120 -259 188 -427 222 -104 22
    -297 20 -407 -4z"/>
  </g>
</svg>
